<svg width="45" height="49" viewBox="0 0 45 49" fill="none" xmlns="http://www.w3.org/2000/svg">
<path d="M39.9878 0.000785607H4.18552C1.87473 0.000785607 0 1.87552 0 4.18631V35.2149C0 37.5257 1.87473 39.4005 4.18552 39.4005L9.55094 39.3981V48.3521C9.55094 48.5783 9.67686 48.7812 9.87972 48.8838C9.96366 48.9257 10.0523 48.9491 10.1479 48.9491C10.2738 48.9491 10.3927 48.9141 10.5 48.8348L23.4761 39.3979H39.9945C42.3053 39.3979 44.18 37.5231 44.18 35.2124V4.18552C44.173 1.87473 42.2983 0 39.9875 0L39.9878 0.000785607ZM42.9795 35.2127C42.9795 36.8613 41.6364 38.2044 39.9878 38.2044H23.2808C23.1549 38.2044 23.029 38.2463 22.9287 38.3186L10.7453 47.1819V38.8016C10.7453 38.4728 10.4772 38.2046 10.1484 38.2046H4.18603C2.53748 38.2046 1.19438 36.8615 1.19438 35.213V4.18613C1.19438 2.53758 2.53748 1.19448 4.18603 1.19448H39.9901C41.6387 1.19448 42.9818 2.53758 42.9818 4.18613L42.9795 35.2127ZM32.6824 10.9599C30.0615 7.79101 26.2003 5.96989 22.0868 5.96989C17.9733 5.96989 14.1124 7.79101 11.4912 10.9599C11.4796 10.9785 11.4609 10.9949 11.4492 11.0135C9.4556 13.4549 8.35731 16.5352 8.35731 19.6995C8.35731 22.8684 9.45554 25.9488 11.4492 28.3855C11.4609 28.4042 11.4726 28.4205 11.4912 28.4391C14.1238 31.615 17.9853 33.4291 22.0868 33.4291C26.1883 33.4291 30.0499 31.615 32.6824 28.4438C32.694 28.4251 32.7127 28.4088 32.7243 28.3902C34.718 25.9488 35.8163 22.8685 35.8163 19.6994C35.8163 16.5352 34.718 13.4549 32.7243 11.0206C32.7127 10.9973 32.701 10.9785 32.6824 10.9599ZM26.2653 19.6996C26.2653 20.9658 26.193 22.1596 26.0811 23.2812C24.8033 22.8941 23.4602 22.6843 22.0868 22.6843C20.7134 22.6843 19.3703 22.8941 18.0925 23.2812C17.9736 22.1596 17.9083 20.9658 17.9083 19.6996C17.9083 18.4334 17.9806 17.2396 18.0925 16.118C19.3703 16.5051 20.7134 16.7149 22.0868 16.7149C23.4602 16.7149 24.7963 16.5051 26.0811 16.118C26.193 17.2396 26.2653 18.4334 26.2653 19.6996ZM31.1294 28.3784L30.8612 28.6466C30.789 28.7189 30.719 28.7842 30.6397 28.8564C30.5511 28.9404 30.4555 29.029 30.3599 29.1083C30.283 29.1736 30.2107 29.2389 30.1337 29.3041C30.0381 29.3881 29.9425 29.465 29.8423 29.542C29.7653 29.6026 29.686 29.6609 29.6044 29.7215C29.5018 29.7985 29.4015 29.8708 29.2989 29.943C29.215 30.0037 29.1381 30.0573 29.0541 30.1109C28.9515 30.1832 28.8442 30.2485 28.737 30.3138C28.653 30.3674 28.5691 30.4211 28.4851 30.47C28.3779 30.5353 28.2706 30.5959 28.1634 30.6542C28.0794 30.7009 27.9908 30.7498 27.9069 30.7965C27.7926 30.8571 27.6854 30.9107 27.5734 30.9644C27.4848 31.0063 27.4009 31.0483 27.3099 31.0903C27.1957 31.1439 27.0768 31.1929 26.9648 31.2395C26.8762 31.2745 26.7853 31.3165 26.6967 31.3538C26.5778 31.4004 26.4588 31.4424 26.3376 31.4843C26.249 31.5147 26.158 31.5496 26.0624 31.5799C25.9435 31.6219 25.8176 31.6569 25.6987 31.6942C25.6101 31.7245 25.5145 31.7478 25.4235 31.7782C25.2976 31.8131 25.1717 31.8434 25.0481 31.8738C24.9595 31.8971 24.8639 31.9204 24.773 31.939C24.7123 31.9507 24.647 31.9624 24.5888 31.974C25.7826 30.4397 26.6174 27.8375 27.0651 24.9063C28.7136 25.6175 30.206 26.6855 31.4278 28.0519C31.3975 28.0868 31.3672 28.1242 31.3322 28.1591C31.2739 28.2361 31.2017 28.3085 31.1294 28.3784ZM22.087 32.2352C20.5761 32.2352 18.9298 29.2085 18.2419 24.4822C19.4731 24.0881 20.7626 23.8783 22.087 23.8783C23.4114 23.8783 24.7009 24.0881 25.9321 24.4822C25.2443 29.2087 23.598 32.2352 22.087 32.2352ZM19.121 31.8761C18.9951 31.8458 18.8692 31.8154 18.7456 31.7805C18.657 31.7571 18.5614 31.7268 18.4704 31.6965C18.3515 31.6615 18.2256 31.6242 18.1067 31.5823C18.018 31.5519 17.9271 31.517 17.8315 31.4867C17.7126 31.4447 17.5937 31.4027 17.4724 31.3561C17.3838 31.3211 17.2929 31.2838 17.2043 31.2418C17.09 31.1952 16.9711 31.1462 16.8592 31.0926C16.7706 31.0506 16.6866 31.0086 16.5957 30.9667C16.4814 30.913 16.3695 30.8524 16.2622 30.7988C16.1783 30.7521 16.0897 30.7032 16.0057 30.6612C15.8985 30.6006 15.7842 30.5423 15.677 30.477C15.593 30.4304 15.5091 30.3744 15.4251 30.3208C15.3179 30.2555 15.2153 30.1832 15.108 30.1179C15.0241 30.0643 14.9471 30.0036 14.8632 29.95C14.7606 29.8777 14.6603 29.8008 14.5577 29.7285C14.4807 29.6679 14.4015 29.6096 14.3245 29.549C14.2219 29.472 14.1287 29.3881 14.0261 29.3111C13.9491 29.2458 13.8768 29.1852 13.8045 29.1199C13.7089 29.036 13.6133 28.9474 13.5177 28.8634C13.4454 28.7981 13.3755 28.7328 13.3032 28.6605C13.2146 28.5719 13.119 28.4763 13.0281 28.3854C12.9628 28.3131 12.8905 28.2432 12.8252 28.1709C12.7949 28.1359 12.7599 28.0986 12.7296 28.0636C13.9538 26.6972 15.4461 25.6293 17.0923 24.9181C17.5494 27.8421 18.3865 30.4444 19.5804 31.9786C19.5197 31.9669 19.4544 31.9553 19.3961 31.9436C19.3052 31.925 19.2096 31.9017 19.121 31.8761ZM22.087 15.5213C20.7673 15.5213 19.4731 15.3114 18.2419 14.9174C18.9298 10.1908 20.5761 7.16437 22.087 7.16437C23.598 7.16437 25.2443 10.191 25.9321 14.9174C24.7009 15.3114 23.4068 15.5213 22.087 15.5213ZM13.0447 11.0209C13.1286 10.9323 13.2172 10.8414 13.3082 10.7574C13.3805 10.6852 13.4574 10.6152 13.5297 10.5429C13.6183 10.459 13.7092 10.375 13.8048 10.2911C13.8818 10.2258 13.9611 10.1605 14.038 10.0952C14.1336 10.0183 14.2292 9.93898 14.3248 9.86203C14.4018 9.79674 14.4857 9.73612 14.5627 9.67782C14.6583 9.60554 14.7585 9.53559 14.8611 9.4633C14.9451 9.40267 15.029 9.34904 15.113 9.29075C15.2156 9.22546 15.3158 9.16017 15.4231 9.09488C15.507 9.04125 15.5956 8.98762 15.6796 8.93399C15.7868 8.87337 15.8894 8.80807 15.9967 8.74978C16.0853 8.70315 16.1693 8.65418 16.2602 8.60755C16.3675 8.54692 16.4817 8.49329 16.589 8.43966C16.6776 8.39769 16.7685 8.35105 16.8571 8.30908C16.9714 8.25545 17.0833 8.20648 17.1976 8.15985C17.2862 8.11787 17.3818 8.08289 17.4774 8.04559C17.5916 7.99895 17.7106 7.95698 17.8225 7.91501C17.9181 7.88003 18.0067 7.84272 18.1023 7.81241C18.2212 7.77044 18.3401 7.73546 18.4614 7.69815C18.557 7.66784 18.6526 7.63753 18.7482 7.61421C18.8671 7.57923 18.993 7.54892 19.1189 7.51861C19.2146 7.49529 19.3101 7.47197 19.4058 7.45331C19.4664 7.44166 19.5317 7.43 19.597 7.41834C18.4031 8.95264 17.5683 11.5549 17.1206 14.486C15.4791 13.7748 13.9867 12.7139 12.7579 11.3451C12.7882 11.3102 12.8185 11.2729 12.8465 11.2425C12.9001 11.1703 12.9724 11.0909 13.0447 11.0209ZM24.5942 7.4207C24.6548 7.43236 24.7201 7.44402 24.7854 7.45567C24.881 7.47899 24.9766 7.50231 25.0722 7.52796C25.1911 7.55827 25.317 7.58858 25.4359 7.61657C25.5315 7.63988 25.6271 7.67719 25.7227 7.70051C25.8417 7.73549 25.9606 7.7728 26.0748 7.80778C26.1704 7.83809 26.266 7.87307 26.3616 7.91038C26.4759 7.95235 26.5878 7.99432 26.7021 8.03629C26.7977 8.07127 26.8863 8.11324 26.9819 8.15521C27.0961 8.20185 27.2034 8.25082 27.3153 8.29745C27.4109 8.33942 27.4995 8.38606 27.5905 8.42803C27.6977 8.48166 27.805 8.53529 27.9123 8.58892C28.0009 8.63556 28.0918 8.68453 28.1804 8.73816C28.2877 8.79878 28.3903 8.85708 28.4905 8.9177C28.5792 8.97133 28.6701 9.02497 28.754 9.07859C28.8566 9.14389 28.9569 9.20451 29.0525 9.27446C29.1364 9.33508 29.2251 9.39338 29.309 9.45401C29.4046 9.52629 29.5049 9.59158 29.6005 9.66386C29.6844 9.72916 29.7684 9.78978 29.8523 9.85507C29.9479 9.92735 30.0365 10.0043 30.1321 10.0813C30.2161 10.1465 30.293 10.2188 30.37 10.2911C30.4586 10.3681 30.5495 10.452 30.6334 10.529C30.7104 10.6012 30.7897 10.6782 30.8666 10.7505C30.9506 10.8344 31.0345 10.9184 31.1185 11.007C31.1954 11.0839 31.2677 11.1632 31.34 11.2401C31.3703 11.2705 31.4006 11.3054 31.4286 11.3427C30.1997 12.7092 28.7074 13.7724 27.0658 14.4836C26.6251 11.5526 25.788 8.955 24.5942 7.4207ZM11.9863 12.2918C13.383 13.8028 15.0783 14.9664 16.9413 15.7172C16.7921 17.0206 16.7152 18.3684 16.7152 19.6999C16.7152 21.0313 16.7921 22.3791 16.9413 23.6826C15.0736 24.4357 13.3831 25.5992 11.9863 27.1149C10.417 24.9767 9.55196 22.3744 9.55196 19.6998C9.55196 17.0322 10.417 14.43 11.9863 12.2918ZM32.1889 27.1149C30.7922 25.5992 29.1017 24.4403 27.2339 23.6825C27.3832 22.379 27.4601 21.0313 27.4601 19.6998C27.4601 18.3683 27.3832 17.0206 27.2339 15.7171C29.097 14.964 30.7922 13.8004 32.1889 12.2917C33.7582 14.43 34.6233 17.0322 34.6233 19.6997C34.6233 22.3743 33.7582 24.9765 32.1889 27.1149Z" fill="#083AF3"/>
</svg>
