<svg width="45" height="43" viewBox="0 0 45 43" fill="none" xmlns="http://www.w3.org/2000/svg">
<path d="M30.9345 20.7928L16.2073 0.338374C16.1314 0.233602 16.0318 0.148307 15.9166 0.0894871C15.8014 0.0306676 15.6739 0 15.5445 0C15.4152 0 15.2877 0.0306676 15.1725 0.0894871C15.0573 0.148307 14.9577 0.233602 14.8818 0.338374L0.154608 20.7928C0.0540931 20.9322 0 21.0996 0 21.2715C0 21.4433 0.0540931 21.6107 0.154608 21.7501L14.8818 42.2046C14.9577 42.3093 15.0573 42.3946 15.1725 42.4534C15.2877 42.5123 15.4152 42.5429 15.5445 42.5429C15.6739 42.5429 15.8014 42.5123 15.9166 42.4534C16.0318 42.3946 16.1314 42.3093 16.2073 42.2046L30.9345 21.7501C31.035 21.6107 31.0891 21.4433 31.0891 21.2715C31.0891 21.0996 31.035 20.9322 30.9345 20.7928ZM22.09 31.2328L21.3086 30.1487C21.1757 29.9947 20.9902 29.8958 20.7883 29.8711C20.5864 29.8465 20.3826 29.8979 20.2166 30.0154C20.0506 30.1329 19.9342 30.308 19.8903 30.5066C19.8464 30.7052 19.8781 30.9131 19.9791 31.0896L21.0836 32.6196L15.5445 40.3268L1.82369 21.2715L15.5445 2.21609L21.0836 9.90697L19.9954 11.4206C19.8687 11.5964 19.8169 11.8154 19.8514 12.0294C19.8859 12.2434 20.0039 12.4349 20.1795 12.562C20.3188 12.6628 20.4862 12.7172 20.6582 12.7174C20.788 12.7168 20.9158 12.6853 21.031 12.6256C21.1462 12.5658 21.2456 12.4795 21.3209 12.3738L22.09 11.3101L29.2654 21.2715L22.09 31.2328Z" fill="#083AF3"/>
<path d="M17.774 25.2397C17.6411 25.0857 17.4556 24.9867 17.2537 24.9621C17.0518 24.9374 16.848 24.9889 16.682 25.1064C16.5159 25.2239 16.3996 25.399 16.3557 25.5976C16.3118 25.7962 16.3434 26.004 16.4445 26.1806L18.2117 28.6351C18.2879 28.7406 18.3881 28.8265 18.504 28.8856C18.62 28.9446 18.7484 28.9752 18.8785 28.9746C19.0493 28.9752 19.2157 28.9207 19.3531 28.8192C19.5293 28.6928 19.6482 28.5015 19.6835 28.2875C19.7188 28.0734 19.6676 27.8542 19.5413 27.6778L17.774 25.2397Z" fill="#083AF3"/>
<path d="M15.8186 18.6164C15.6428 18.4897 15.4238 18.4378 15.2098 18.4724C14.9958 18.5069 14.8043 18.6249 14.6772 18.8005L13.2454 20.7928C13.1449 20.9321 13.0908 21.0996 13.0908 21.2714C13.0908 21.4432 13.1449 21.6107 13.2454 21.75L14.6772 23.7259C14.7534 23.8315 14.8536 23.9174 14.9696 23.9764C15.0855 24.0355 15.2139 24.066 15.3441 24.0655C15.5148 24.0661 15.6813 24.0116 15.8186 23.91C15.9949 23.7836 16.1137 23.5923 16.149 23.3783C16.1843 23.1643 16.1331 22.945 16.0068 22.7687L14.9145 21.2714L16.0068 19.7578C16.1331 19.5814 16.1843 19.3622 16.149 19.1481C16.1137 18.9341 15.9949 18.7429 15.8186 18.6164Z" fill="#083AF3"/>
<path d="M19.3654 13.6951C19.2782 13.6317 19.1794 13.5862 19.0745 13.5611C18.9697 13.5361 18.8609 13.532 18.7545 13.5491C18.648 13.5662 18.546 13.6041 18.4543 13.6608C18.3626 13.7175 18.2829 13.7917 18.22 13.8792L16.4486 16.3338C16.3831 16.4209 16.3356 16.5202 16.3089 16.626C16.2823 16.7317 16.2771 16.8417 16.2936 16.9495C16.3101 17.0573 16.3479 17.1607 16.405 17.2536C16.462 17.3466 16.537 17.4272 16.6256 17.4907C16.7143 17.5543 16.8147 17.5994 16.921 17.6236C17.0273 17.6478 17.1374 17.6504 17.2448 17.6315C17.3522 17.6125 17.4547 17.5722 17.5463 17.513C17.6379 17.4539 17.7167 17.377 17.7782 17.2869L19.5495 14.8324C19.675 14.6569 19.7261 14.4389 19.6916 14.2259C19.6571 14.0129 19.5399 13.8221 19.3654 13.6951Z" fill="#083AF3"/>
<path d="M44.0252 20.7928L29.298 0.338374C29.2221 0.233602 29.1225 0.148307 29.0073 0.0894871C28.8921 0.0306676 28.7646 0 28.6352 0C28.5059 0 28.3784 0.0306676 28.2632 0.0894871C28.148 0.148307 28.0484 0.233602 27.9725 0.338374L23.3703 6.72835C23.2498 6.90487 23.2032 7.12152 23.2404 7.33197C23.2776 7.54241 23.3957 7.72995 23.5694 7.85447C23.7431 7.97899 23.9586 8.03061 24.1698 7.99829C24.3811 7.96597 24.5713 7.85228 24.6998 7.68152L28.6352 2.21609L42.3561 21.2715L28.6352 40.3268L24.6875 34.841C24.5606 34.6646 24.3688 34.546 24.1544 34.5111C23.94 34.4762 23.7204 34.5279 23.5441 34.6548C23.3678 34.7818 23.2492 34.9735 23.2143 35.188C23.1794 35.4024 23.2311 35.6219 23.358 35.7982L27.9725 42.2046C28.0484 42.3093 28.148 42.3946 28.2632 42.4534C28.3784 42.5123 28.5059 42.5429 28.6352 42.5429C28.7646 42.5429 28.8921 42.5123 29.0073 42.4534C29.1225 42.3946 29.2221 42.3093 29.298 42.2046L44.0252 21.7501C44.1257 21.6107 44.1798 21.4433 44.1798 21.2715C44.1798 21.0996 44.1257 20.9322 44.0252 20.7928Z" fill="#083AF3"/>
</svg>
