<svg width="37" height="48" viewBox="0 0 37 48" fill="none" xmlns="http://www.w3.org/2000/svg">
<path d="M3.63176 0C1.63159 0 0 1.63557 0 3.63773L0.00199219 44.3623C0.00199219 46.3644 1.63359 48 3.63375 48H33.3413C35.3414 48 36.975 46.3644 36.975 44.3623L36.973 3.63773C36.973 1.63557 35.3394 0 33.3393 0H3.63176ZM3.63176 1.50011H33.3413C34.5346 1.50011 35.473 2.44045 35.473 3.63773V44.3623C35.473 45.5596 34.5347 46.4999 33.3413 46.4999H3.63176C2.43846 46.4999 1.49415 45.5595 1.49415 44.3623L1.49614 3.63773C1.49614 2.4404 2.44046 1.50011 3.63375 1.50011H3.63176ZM12.9673 10.9667C12.7681 10.9628 12.5749 11.0385 12.4314 11.1779L9.15823 14.3335L7.63022 12.8554C7.48678 12.7179 7.29353 12.6422 7.09431 12.6462C6.89509 12.6502 6.70583 12.7338 6.5684 12.8773C6.42894 13.0207 6.35324 13.2139 6.35921 13.4152C6.3632 13.6144 6.44687 13.8036 6.5903 13.9411L8.63826 15.9173C8.92912 16.1982 9.38934 16.1982 9.68019 15.9173L13.4793 12.2577C13.7741 11.9708 13.7821 11.4986 13.4952 11.1998C13.3578 11.0564 13.1685 10.9727 12.9693 10.9667L12.9673 10.9667ZM16.8879 13.3534C16.6887 13.3514 16.4955 13.4311 16.354 13.5725C16.2126 13.714 16.1349 13.9052 16.1349 14.1064C16.1369 14.3057 16.2166 14.4949 16.356 14.6364C16.4975 14.7758 16.6887 14.8535 16.8879 14.8535H29.8649C30.2773 14.8515 30.61 14.5188 30.6119 14.1065C30.6139 13.6921 30.2793 13.3554 29.8649 13.3534L16.8879 13.3534ZM12.9673 21.4195C12.7681 21.4156 12.5749 21.4913 12.4314 21.6287L9.15823 24.7863L7.63022 23.3121C7.48678 23.1727 7.29553 23.097 7.0963 23.101C6.89708 23.103 6.70583 23.1866 6.56834 23.3301C6.42889 23.4735 6.35319 23.6668 6.35916 23.866C6.36315 24.0652 6.44682 24.2545 6.59025 24.3939L8.63821 26.3702V26.3682C8.92907 26.6491 9.38929 26.6491 9.68014 26.3682L13.4792 22.7085V22.7105C13.7741 22.4217 13.782 21.9495 13.4952 21.6527C13.3577 21.5072 13.1685 21.4236 12.9693 21.4196L12.9673 21.4195ZM16.8879 23.8062C16.6887 23.8062 16.4955 23.8839 16.354 24.0253C16.2126 24.1668 16.1349 24.36 16.1349 24.5593C16.1369 24.7585 16.2166 24.9477 16.356 25.0892C16.4975 25.2287 16.6887 25.3063 16.8879 25.3063H29.8649C30.2773 25.3044 30.61 24.9717 30.6119 24.5593C30.6139 24.1449 30.2793 23.8082 29.8649 23.8062L16.8879 23.8062ZM12.9673 31.8724C12.7681 31.8684 12.5749 31.9441 12.4314 32.0815H12.4294L9.15624 35.2372L7.62822 33.765H7.63022C7.48678 33.6275 7.29553 33.5498 7.0963 33.5538C6.89708 33.5558 6.70583 33.6394 6.56835 33.7829C6.43088 33.9263 6.35518 34.1196 6.35916 34.3188C6.36315 34.518 6.44682 34.7073 6.59025 34.8447L8.63821 36.8229V36.821C8.92907 37.1019 9.38929 37.1019 9.68014 36.821L13.4792 33.1613C13.7741 32.8744 13.7801 32.4023 13.4952 32.1054C13.3577 31.96 13.1685 31.8763 12.9693 31.8724L12.9673 31.8724ZM16.8879 34.259C16.6887 34.259 16.4955 34.3367 16.354 34.4782C16.2126 34.6196 16.1349 34.8128 16.1349 35.0121C16.1369 35.2113 16.2166 35.4006 16.356 35.542C16.4975 35.6815 16.6887 35.7592 16.8879 35.7592H29.8649C30.2773 35.7572 30.61 35.4245 30.6119 35.0121C30.6139 34.5977 30.2793 34.261 29.8649 34.259L16.8879 34.259Z" fill="#083AF3"/>
</svg>
