<svg width="419" height="428" viewBox="0 0 419 428" fill="none" xmlns="http://www.w3.org/2000/svg">
<path d="M197.756 310.064V390.913L100 247.567L197.756 310.064Z" stroke="#083AF3" stroke-width="2" stroke-linejoin="round"/>
<path d="M295.522 247.567L197.759 390.913V310.064L295.522 247.567Z" stroke="#083AF3" stroke-width="2" stroke-linejoin="round"/>
<path d="M295.522 227.37L197.759 171.605V289.875L295.522 227.37Z" stroke="#083AF3" stroke-width="2" stroke-linejoin="round"/>
<path d="M295.522 227.37L197.759 57V171.604L295.522 227.37Z" stroke="#083AF3" stroke-width="2" stroke-linejoin="round"/>
<path d="M197.756 57V171.604L100 227.37L197.756 57Z" stroke="#083AF3" stroke-width="2" stroke-linejoin="round"/>
<path d="M197.756 171.605V289.875L100 227.37L197.756 171.605Z" stroke="#083AF3" stroke-width="2" stroke-linejoin="round"/>
<circle cx="198" cy="224" r="169" stroke="#083AF3" stroke-width="2"/>
<path d="M198.5 289L411.5 154" stroke="#083AF3" stroke-width="2"/>
<path d="M197.5 172L7 279.5" stroke="#083AF3" stroke-width="2"/>
<path d="M293.5 226.5L46.5 84.5" stroke="#083AF3" stroke-width="2"/>
<path d="M198 310.5L198 421" stroke="#083AF3" stroke-width="2"/>
<path d="M198 7L198 117.5" stroke="#083AF3" stroke-width="2"/>
<circle cx="198" cy="421" r="6" fill="#083AF3" stroke="#083AF3" stroke-width="2"/>
<circle cx="198" cy="7" r="6" fill="#083AF3" stroke="#083AF3" stroke-width="2"/>
<circle cx="198" cy="393" r="6" fill="#083AF3" stroke="#083AF3" stroke-width="2"/>
<circle cx="198" cy="308" r="6" fill="#083AF3" stroke="#083AF3" stroke-width="2"/>
<circle cx="198" cy="289" r="6" fill="#083AF3" stroke="#083AF3" stroke-width="2"/>
<circle cx="198" cy="172" r="6" fill="#083AF3" stroke="#083AF3" stroke-width="2"/>
<circle cx="148" cy="144" r="6" fill="#083AF3" stroke="#083AF3" stroke-width="2"/>
<circle cx="79" cy="104" r="6" fill="#083AF3" stroke="#083AF3" stroke-width="2"/>
<circle cx="47" cy="85" r="6" fill="#083AF3" stroke="#083AF3" stroke-width="2"/>
<circle cx="198" cy="55" r="6" fill="#083AF3" stroke="#083AF3" stroke-width="2"/>
<circle cx="296" cy="248" r="6" fill="#083AF3" stroke="#083AF3" stroke-width="2"/>
<circle cx="295" cy="228" r="6" fill="#083AF3" stroke="#083AF3" stroke-width="2"/>
<circle cx="362" cy="186" r="6" fill="#083AF3" stroke="#083AF3" stroke-width="2"/>
<circle cx="412" cy="154" r="6" fill="#083AF3" stroke="#083AF3" stroke-width="2"/>
<circle cx="102" cy="248" r="6" fill="#083AF3" stroke="#083AF3" stroke-width="2"/>
<circle cx="102" cy="226" r="6" fill="#083AF3" stroke="#083AF3" stroke-width="2"/>
<circle cx="34" cy="264" r="6" fill="#083AF3" stroke="#083AF3" stroke-width="2"/>
<circle cx="7" cy="280" r="6" fill="#083AF3" stroke="#083AF3" stroke-width="2"/>
</svg>
