<svg width="33" height="50" viewBox="0 0 33 50" fill="none" xmlns="http://www.w3.org/2000/svg">
<rect x="0.489696" y="0.489818" width="31.8367" height="48.9796" rx="3.42857" stroke="#083AF3" stroke-width="0.979592"/>
<path d="M16.5268 41.4431C15.2284 41.4431 14.1719 42.4991 14.1719 43.7981C14.1719 45.096 15.2284 46.1525 16.5268 46.1525C17.8253 46.1525 18.8818 45.0965 18.8818 43.7981C18.8818 42.4996 17.8253 41.4431 16.5268 41.4431ZM16.5268 45.4178C15.6334 45.4178 14.9066 44.6914 14.9066 43.7981C14.9066 42.9047 15.6334 42.1778 16.5268 42.1778C17.4202 42.1778 18.1471 42.9042 18.1471 43.7981C18.1471 44.691 17.4202 45.4178 16.5268 45.4178Z" fill="#083AF3"/>
<path d="M16.74 28.6755V35.4895L8.50098 23.4081L16.74 28.6755Z" stroke="#083AF3" stroke-width="0.8" stroke-linejoin="round"/>
<path d="M24.9798 23.4081L16.7402 35.4895V28.6755L24.9798 23.4081Z" stroke="#083AF3" stroke-width="0.8" stroke-linejoin="round"/>
<path d="M24.9798 21.706L16.7402 17.006V26.9739L24.9798 21.706Z" stroke="#083AF3" stroke-width="0.8" stroke-linejoin="round"/>
<path d="M24.9798 21.7059L16.7402 7.34692V17.0059L24.9798 21.7059Z" stroke="#083AF3" stroke-width="0.8" stroke-linejoin="round"/>
<path d="M16.74 7.34692V17.0059L8.50098 21.7059L16.74 7.34692Z" stroke="#083AF3" stroke-width="0.8" stroke-linejoin="round"/>
<path d="M16.74 17.006V26.9739L8.50098 21.706L16.74 17.006Z" stroke="#083AF3" stroke-width="0.8" stroke-linejoin="round"/>
</svg>
