<svg width="45" height="48" viewBox="0 0 45 48" fill="none" xmlns="http://www.w3.org/2000/svg">
<path d="M6.55387 0C5.09701 0 3.91484 1.17979 3.91484 2.63372V6.69767H2.79632C1.25683 6.69767 0 7.95197 0 9.48836C0 11.0248 1.25683 12.2791 2.79632 12.2791H3.91484V21.2093H2.79632C1.25683 21.2093 0 22.4636 0 24C0 25.5364 1.25683 26.7907 2.79632 26.7907H3.91484V35.7209H2.79632C1.25683 35.7209 0 36.9752 0 38.5116C0 40.048 1.25683 41.3023 2.79632 41.3023H3.91484V45.3488C3.90598 46.8069 5.097 48 6.55387 48H41.5428C43.0011 48 44.1818 46.8028 44.1818 45.3488V2.63372C44.1818 1.17979 42.9997 0 41.5428 0H6.55387ZM6.55387 1.11628H41.5428C42.3993 1.11628 43.0633 1.77889 43.0633 2.63372V45.3488C43.0633 46.2037 42.3979 46.8837 41.5428 46.8837H6.55387C5.69733 46.8837 5.0282 46.217 5.03337 45.3663C5.03346 45.3605 5.03346 45.3547 5.03337 45.3488V41.3023H6.1519C7.69138 41.3023 8.94822 40.048 8.94822 38.5116C8.94822 36.9752 7.69138 35.7209 6.1519 35.7209H5.03337V26.7907H6.1519C7.69138 26.7907 8.94822 25.5364 8.94822 24C8.94822 22.4636 7.69138 21.2093 6.1519 21.2093H5.03337V12.2791H6.1519C7.69138 12.2791 8.94822 11.0248 8.94822 9.48836C8.94822 7.95197 7.69138 6.69767 6.1519 6.69767H5.03337V2.63372C5.03337 1.77889 5.69733 1.11628 6.55387 1.11628ZM2.79632 7.81394H6.1519C7.09107 7.81394 7.82969 8.55108 7.82969 9.48836C7.82969 10.4256 7.09107 11.1628 6.1519 11.1628H2.79632C1.85715 11.1628 1.11853 10.4256 1.11853 9.48836C1.11853 8.55108 1.85715 7.81394 2.79632 7.81394ZM24.0483 11.7102C21.307 11.7102 19.075 13.9378 19.075 16.6736C19.075 19.4095 21.307 21.637 24.0483 21.637C26.7897 21.637 29.0217 19.4095 29.0217 16.6736C29.0217 13.9378 26.7897 11.7102 24.0483 11.7102ZM24.0483 12.6127C26.301 12.6127 28.1175 14.4255 28.1175 16.6736C28.1175 18.9217 26.301 20.7346 24.0483 20.7346C21.7957 20.7346 19.9792 18.9217 19.9792 16.6736C19.9792 14.4255 21.7957 12.6127 24.0483 12.6127ZM2.79632 22.3256H6.1519C7.09107 22.3256 7.82969 23.0627 7.82969 24C7.82969 24.9373 7.09107 25.6744 6.1519 25.6744H2.79632C1.85715 25.6744 1.11853 24.9373 1.11853 24C1.11853 23.0627 1.85715 22.3256 2.79632 22.3256ZM20.2053 23.4419C17.3359 23.4419 15.0058 25.721 15.0058 28.5462V34.7222C15.0058 34.8419 15.0535 34.9567 15.1383 35.0413C15.2231 35.1259 15.3381 35.1735 15.458 35.1735H32.6387C32.7586 35.1735 32.8736 35.1259 32.9584 35.0413C33.0432 34.9567 33.0908 34.8419 33.0908 34.7222V28.5462C33.0908 25.721 30.7607 23.4419 27.8914 23.4419H20.2053ZM20.2053 24.3443H27.8914C30.2846 24.3443 32.1866 26.2136 32.1866 28.5462V34.2711H15.9101V28.5462C15.9101 26.2136 17.8121 24.3443 20.2053 24.3443ZM2.79632 36.8372H6.1519C7.09107 36.8372 7.82969 37.5744 7.82969 38.5116C7.82969 39.4489 7.09107 40.1861 6.1519 40.1861H2.79632C1.85715 40.1861 1.11853 39.4489 1.11853 38.5116C1.11853 37.5744 1.85715 36.8372 2.79632 36.8372Z" fill="#083AF3"/>
</svg>
