<svg width="45" height="45" viewBox="0 0 45 45" fill="none" xmlns="http://www.w3.org/2000/svg">
<path d="M44.18 17.3805V15.9819H38.2402V8.66523C38.2402 7.12889 36.9901 5.87883 35.4538 5.87883H28.8342V0H27.4356V5.87883H23.1085V0H21.7098V5.87883H17.3827L17.3805 0H15.9819V5.87883H8.8202C7.28386 5.87883 6.0338 7.12889 6.0338 8.66523V15.9819H0V17.3805H6.0338V21.7076H0V23.1063H6.0338V27.4334L0 27.4356V28.8342H6.0338V35.3011C6.0338 36.8374 7.28386 38.0875 8.8202 38.0875H15.9819V44.1806H17.3805V38.0875H21.7076V44.1806H23.1063V38.0875H27.4334V44.1806H28.8321L28.8342 38.0875H35.456C36.9924 38.0875 38.2424 36.8374 38.2424 35.3011L38.2402 28.8342H44.1778V27.4356H38.2402V23.1085H44.1778V21.7098H38.2402V17.3827L44.18 17.3805ZM36.8415 35.3007C36.8415 36.0656 36.2187 36.6884 35.4538 36.6884H8.8206C8.0557 36.6884 7.43285 36.0656 7.43285 35.3007V8.66523C7.43285 7.90033 8.0557 7.27748 8.8206 7.27748H35.4538C36.2187 7.27748 36.8415 7.90033 36.8415 8.66523V35.3007Z" fill="#083AF3"/>
<path d="M15.4395 28.679H28.8319L28.834 15.2866H15.44L15.4395 28.679ZM16.8381 16.6853H27.4332V27.2804H16.8381V16.6853Z" fill="#083AF3"/>
</svg>
