<svg width="41" height="48" viewBox="0 0 41 48" fill="none" xmlns="http://www.w3.org/2000/svg">
<path d="M20.1883 0C20.0119 0 19.8417 0.0615253 19.7064 0.174318C18.0021 1.59551 16.0334 2.77063 13.9108 3.62991C9.60414 5.37308 4.93217 5.70531 0.951575 4.58353H0.953626C0.728036 4.51995 0.483992 4.56507 0.297369 4.70658C0.110745 4.84808 0 5.06957 0 5.3054V27.8623C0 33.6846 5.09418 38.6354 10.0266 42.1934C14.9567 45.7515 19.8746 47.9375 19.8746 47.9375V47.9354C20.0674 48.0215 20.2909 48.0215 20.4837 47.9354C20.4837 47.9354 25.4016 45.7492 30.3339 42.1913C35.2661 38.6332 40.3605 33.6825 40.3605 27.8602V5.29337C40.3605 5.05753 40.2497 4.83605 40.0631 4.69455C39.8765 4.55305 39.6324 4.50793 39.4068 4.57151C35.4303 5.69738 30.7584 5.36925 26.4497 3.63017C24.3333 2.76885 22.3666 1.59373 20.6683 0.174582C20.533 0.06179 20.3626 0 20.1883 0ZM20.1883 1.71446C21.8966 3.06183 23.8223 4.18157 25.8857 5.01832V5.02037C30.1472 6.74097 34.7472 7.18193 38.8591 6.25498V27.86C38.8591 32.7779 34.2386 37.5233 29.4541 40.9747C25.3566 43.9319 21.2714 45.913 20.1783 46.4237C19.0853 45.913 15 43.932 10.9025 40.9747C6.11798 37.5232 1.49967 32.7777 1.49967 27.86V6.26705C5.61356 7.18991 10.2137 6.74489 14.4752 5.02016C16.5424 4.18341 18.4743 3.06367 20.1867 1.71425L20.1883 1.71446ZM28.3485 15.5925C28.1496 15.5925 27.9589 15.6724 27.8174 15.8119L17.6905 25.9387L12.541 20.7892L12.543 20.7912C12.4015 20.6497 12.2108 20.5718 12.0119 20.5718C11.8129 20.5718 11.6222 20.6497 11.4807 20.7912C11.3413 20.9327 11.2613 21.1234 11.2613 21.3224C11.2613 21.5213 11.3413 21.712 11.4807 21.8515L17.1592 27.5299H17.1612C17.4524 27.8232 17.9282 27.8232 18.2215 27.5299L28.8796 16.8739C29.0191 16.7324 29.0991 16.5417 29.0991 16.3427C29.0991 16.1438 29.0191 15.9531 28.8796 15.8116C28.7381 15.6721 28.5474 15.5925 28.3485 15.5925Z" fill="#083AF3"/>
</svg>
