<svg width="32" height="48" viewBox="0 0 32 48" fill="none" xmlns="http://www.w3.org/2000/svg">
<path d="M6.13427 8.61517H16.6352C16.9642 8.61517 17.2309 8.33993 17.2309 7.99978C17.2309 7.65964 16.9642 7.3844 16.6352 7.3844H6.13427C5.8053 7.3844 5.53857 7.65964 5.53857 7.99978C5.53857 8.33993 5.8053 8.61517 6.13427 8.61517Z" fill="#083AF3"/>
<path d="M6.13427 40.6154H16.6352C16.9642 40.6154 17.2309 40.3402 17.2309 40C17.2309 39.6599 16.9642 39.3846 16.6352 39.3846H6.13427C5.8053 39.3846 5.53857 39.6599 5.53857 40C5.53857 40.3402 5.8053 40.6154 6.13427 40.6154Z" fill="#083AF3"/>
<path d="M22.1846 8.61517H25.8157C26.1724 8.61517 26.4617 8.33993 26.4617 7.99978C26.4617 7.65964 26.1724 7.3844 25.8157 7.3844H22.1846C21.8278 7.3844 21.5386 7.65964 21.5386 7.99978C21.5386 8.33993 21.8278 8.61517 22.1846 8.61517Z" fill="#083AF3"/>
<path d="M22.1846 40.6154H25.8157C26.1724 40.6154 26.4617 40.3402 26.4617 40C26.4617 39.6599 26.1724 39.3846 25.8157 39.3846H22.1846C21.8278 39.3846 21.5386 39.6599 21.5386 40C21.5386 40.3402 21.8278 40.6154 22.1846 40.6154Z" fill="#083AF3"/>
<path d="M0.274695 47.9064C0.371272 47.9679 0.481439 47.9996 0.592184 47.9996C0.678063 47.9996 0.76423 47.9808 0.844325 47.9427L5.62806 45.6629L10.4115 47.9427C10.5711 48.0189 10.7562 48.0183 10.9158 47.9422L15.6958 45.6629L20.4775 47.9427C20.6371 48.0189 20.8222 48.0183 20.9818 47.9422L25.7615 45.6629L30.5403 47.9422C30.7242 48.0312 30.939 48.016 31.1096 47.9064C31.2808 47.7963 31.3846 47.6052 31.3846 47.3996V0.599996C31.3846 0.394333 31.2808 0.203319 31.1099 0.0931641C30.9385 -0.0164053 30.7239 -0.0298817 30.5403 0.0568363L25.7565 2.3367L20.9731 0.0568363C20.8135 -0.0193349 20.6284 -0.018749 20.4688 0.0574222L15.6888 2.3367L10.9071 0.0568363C10.7475 -0.0193349 10.5625 -0.018749 10.4028 0.0574222L5.62286 2.3367L0.844325 0.0574222C0.661292 -0.0304676 0.446452 -0.0158193 0.274984 0.0931641C0.103806 0.203319 0 0.394333 0 0.599996V47.3996C0 47.6052 0.103806 47.7963 0.274695 47.9064ZM1.18437 1.54569L5.37072 3.54255C5.53033 3.61872 5.71539 3.61872 5.875 3.54255L10.655 1.26327L15.4367 3.54313C15.5963 3.6193 15.7814 3.61872 15.941 3.54255L20.721 1.26327L25.5044 3.54313C25.664 3.6193 25.8491 3.6193 26.0087 3.54313L30.2002 1.5451V46.4539L26.0136 44.457C25.854 44.3809 25.6689 44.3809 25.5093 44.457L20.7296 46.7363L15.9479 44.4564C15.7883 44.3803 15.6032 44.3809 15.4436 44.457L10.6637 46.7363L5.88021 44.4564C5.8004 44.4184 5.71423 44.3996 5.62806 44.3996C5.5419 44.3996 5.45573 44.4184 5.37592 44.4564L1.18437 46.4545V1.54569Z" fill="#083AF3"/>
<path d="M13.1599 32.6526C11.4194 34.393 8.5843 34.393 6.84387 32.6526C5.10345 30.9122 5.10348 28.077 6.84392 26.3366L10.7037 22.4768C12.4442 20.7363 15.2793 20.7363 17.0198 22.4767C17.0904 22.5455 17.1468 22.6276 17.1854 22.7183C17.2241 22.809 17.2444 22.9065 17.2451 23.0052C17.2457 23.1038 17.2268 23.2016 17.1894 23.2928C17.152 23.3841 17.0968 23.4669 17.027 23.5367C16.9573 23.6064 16.8744 23.6616 16.7832 23.699C16.6919 23.7365 16.5942 23.7554 16.4955 23.7547C16.3969 23.754 16.2994 23.7338 16.2087 23.6951C16.118 23.6564 16.0358 23.6001 15.9671 23.5294C14.7916 22.3539 12.9319 22.354 11.7564 23.5294L7.89658 27.3893C6.72111 28.5647 6.72109 30.4245 7.89655 31.5999C9.072 32.7754 10.9318 32.7754 12.1072 31.5999L15.967 27.7401C16.0358 27.6694 16.1179 27.613 16.2087 27.5743C16.2994 27.5356 16.3969 27.5153 16.4955 27.5147C16.5942 27.514 16.6919 27.5329 16.7832 27.5703C16.8745 27.6077 16.9574 27.6629 17.0271 27.7327C17.0969 27.8024 17.152 27.8853 17.1895 27.9766C17.2269 28.0678 17.2458 28.1656 17.2451 28.2642C17.2444 28.3629 17.2241 28.4604 17.1855 28.5511C17.1468 28.6418 17.0904 28.724 17.0197 28.7927L13.1599 32.6526ZM20.1777 25.6347C18.4373 27.3751 15.6022 27.3752 13.8617 25.6348C13.7911 25.566 13.7348 25.4839 13.6961 25.3931C13.6574 25.3024 13.6372 25.2049 13.6365 25.1063C13.6358 25.0077 13.6548 24.91 13.6922 24.8187C13.7296 24.7275 13.7848 24.6446 13.8545 24.5749C13.9242 24.5051 14.0071 24.45 14.0984 24.4125C14.1896 24.3751 14.2874 24.3562 14.386 24.3568C14.4846 24.3575 14.5821 24.3778 14.6728 24.4164C14.7635 24.4551 14.8456 24.5114 14.9144 24.5821C16.0899 25.7575 17.9496 25.7575 19.1251 24.582L22.9849 20.7222C24.1604 19.5468 24.1604 17.687 22.9849 16.5115C21.8095 15.3361 19.9497 15.3361 18.7743 16.5116L14.9144 20.3714C14.8457 20.4421 14.7635 20.4985 14.6728 20.5372C14.5821 20.5759 14.4846 20.5962 14.3859 20.5969C14.2873 20.5976 14.1895 20.5787 14.0982 20.5413C14.0069 20.5038 13.924 20.4486 13.8543 20.3789C13.7845 20.3091 13.7293 20.2262 13.6919 20.135C13.6545 20.0437 13.6356 19.9459 13.6363 19.8473C13.637 19.7486 13.6573 19.6511 13.696 19.5604C13.7347 19.4696 13.791 19.3875 13.8618 19.3187L17.7216 15.4589C19.462 13.7185 22.2972 13.7184 24.0376 15.4589C25.778 17.1993 25.778 20.0344 24.0376 21.7749L20.1777 25.6347Z" fill="#083AF3"/>
</svg>
